# xmcd
#
# Track frame offsets: 
#        150
#        41407
#        83904
#        114571
#        216189
#        259597
#
# Disc length: 3975 seconds
#
# Revision: 5
# Processed by: cddbd v1.5.2PL0 Copyright (c) Steve Scherf et al.
# Submitted via: ExactAudioCopy v0.99pb4
#
DISCID=4a0f8506
DTITLE=David Oistrakh - David Oistrakh - The Complete EMI Recordings [
DTITLE=Disc  7]
DYEAR=2008
DGENRE=Concerto
TTITLE0=Mozart: Violin Concerto no.3 in G major, K.216 (rec.1971) - 1.
TTITLE0=Allegro
TTITLE1=Mozart: Violin Concerto no.3 in G major, K.216 (rec.1971) - 2.
TTITLE1=Adagio
TTITLE2=Mozart: Violin Concerto no.3 in G major, K.216 (rec.1971) - 3.
TTITLE2=Rondeau. Allegro
TTITLE3=Brahms: Violin Concerto in D major, op.77 (1969) - 1. Allegro 
TTITLE3=non troppo
TTITLE4=Brahms: Violin Concerto in D major, op.77 (1969) - 2. Adagio
TTITLE5=Brahms: Violin Concerto in D major, op.77 (1969) - 3. Allegro 
TTITLE5=giocoso, ma non troppo vivace
EXTD=
EXTT0=
EXTT1=
EXTT2=
EXTT3=
EXTT4=
EXTT5=
PLAYORDER=
